<svg id="eye" xmlns="http://www.w3.org/2000/svg" viewBox="0 0 50 50"><title>eye A</title><path id="eye_A" data-name="eye A" d="M41.51,24.43C41.29,24,36,13.85,25,13.85S8.71,24,8.49,24.43L8.2,25l.29.57C8.71,26,14,36.15,25,36.15S41.29,26,41.51,25.57L41.8,25ZM32.1,23.2a7.1,7.1,0,1,1-9.7-6.6,13.64,13.64,0,0,1,5.2,0A7.1,7.1,0,0,1,32.1,23.2ZM25,33.65C17,33.65,12.27,27,11,25a20.56,20.56,0,0,1,6-6.24,9.1,9.1,0,1,0,15.88,0A20.56,20.56,0,0,1,39,25C37.73,27,33.05,33.65,25,33.65ZM24.35,21a2.5,2.5,0,1,1-2.5-2.5A2.5,2.5,0,0,1,24.35,21Z"/></svg>