<svg id="tools" xmlns="http://www.w3.org/2000/svg" viewBox="0 0 50 50"><title>tools A</title><path id="tools_A" data-name="tools A" d="M13.67,29.26l-1.95,8.42a.5.5,0,0,0,.49.61h.11l8.42-2,3.84-3.84L33,40.91a1,1,0,0,0,.72.29,1,1,0,0,0,.73-.29l5.76-5.75a2,2,0,0,0,0-2.91l-7.72-7.7,7.31-7.31a4,4,0,0,0,0-5.65l-1.42-1.42a4,4,0,0,0-5.65,0L25.43,17.5,17.71,9.8a2.05,2.05,0,0,0-2.9,0L9,15.55A1,1,0,0,0,9,17l8.46,8.42Zm5.42-5.42L18.24,23l1.67-1.68L18.5,19.91l-1.68,1.67-2-2,1.68-1.68L15.1,16.51,13.42,18.2,11.5,16.28l4.76-4.74,7.58,7.55ZM34.35,11.76a1.75,1.75,0,0,1,2.47,0l1.42,1.42a1.75,1.75,0,0,1,0,2.47l-1,1-3.89-3.89Zm-2.56,2.57,3.88,3.88-1,1-3.88-3.88ZM16,35.12,14.88,34l.77-3.34,1.44.72.71,2.12,1.63.82ZM33.24,20.65,21,32.88l-1.58-.79,0-.08-.76-2.08L17,29.11,29.35,16.76Zm.51,17.8-1.91-1.9,1.65-1.65-1.42-1.42-1.65,1.65-2-2,1.65-1.66-1.41-1.41L27,31.75l-.85-.85,4.76-4.76,7.59,7.57Z"/></svg>